{"title":"Video.Game.High.School.2012.BRRiP.XViD 1MPERiUM","uid":8015104,"size":1604811091,"categoryP":"video","categoryS":"movies","magnet":"?xt=urn:btih:6c646382613192e25fbdc23c11273a7499eb207d&amp;dn=Video.Game.High.School.2012.BRRiP.XViD+1MPERiUM&amp;tr=udp%3A%2F%2Ftracker.openbittorrent.com%3A80&amp;tr=udp%3A%2F%2Fopen.demonii.com%3A1337&amp;tr=udp%3A%2F%2Ftracker.coppersurfer.tk%3A6969&amp;tr=udp%3A%2F%2Fexodus.desync.com%3A6969","seeders":0,"leechers":1,"uploader":"Acesn8s","files":-1,"time":1358090093,"description":"Release Name: Video Game High School 2012 BRRiP XViD 1MPERiUM\n\nPoster: http://old.rapidimg.org/images/uTf5s.jpg\n\nIMDB:  &lt;a href=&quot; http://www.imdb.com/title/tt2170584/&quot; rel=&quot;nofollow&quot; target=&quot;_NEW&quot;&gt; http://www.imdb.com/title/tt2170584/&lt;/a&gt;\n\nFormat                                   : AVI\nFormat/Info                              : Audio Video Interleave\nFile size                                : 1.48 GiB\nDuration                                 : 2h 4mn\nOverall bit rate                         : 1 713 Kbps\nWriting application                      : VirtualDubMod 1.5.10.2 (build 2540/release)\nWriting library                          : VirtualDubMod build 2540/release\n\nVideo\nID                                       : 0\nFormat                                   : MPEG-4 Visual\nFormat profile                           : Advanced Simple@L5\nFormat settings, BVOP                    : 2\nFormat settings, QPel                    : No\nFormat settings, GMC                     : No warppoints\nFormat settings, Matrix                  : Default (H.263)\nMuxing mode                              : Packed bitstream\nCodec ID                                 : XVID\nCodec ID/Hint                            : XviD\nDuration                                 : 2h 4mn\nBit rate                                 : 1 319 Kbps\nWidth                                    : 720 pixels\nHeight                                   : 400 pixels\nDisplay aspect ratio                     : 16:9\nFrame rate                               : 23.976 fps\nColor space                              : YUV\nChroma subsampling                       : 4:2:0\nBit depth                                : 8 bits\nScan type                                : Progressive\nCompression mode                         : Lossy\nBits/(Pixel*Frame)                       : 0.191\nStream size                              : 1.14 GiB (77%)\nWriting library                          : XviD 64\n\nAudio\nID                                       : 1\nFormat                                   : AC-3\nFormat/Info                              : Audio Coding 3\nMode extension                           : CM (complete main)\nFormat settings, Endianness              : Big\nCodec ID                                 : 2000\nDuration                                 : 2h 4mn\nBit rate mode                            : Constant\nBit rate                                 : 384 Kbps\nChannel(s)                               : 2 channels\nChannel positions                        : Front: L R\nSampling rate                            : 48.0 KHz\nBit depth                                : 16 bits\nCompression mode                         : Lossy\nStream size                              : 341 MiB (22%)\nAlignment                                : Split accross interleaves\nInterleave, duration                     : 42 ms (1.00 video frame)\nInterleave, preload duration             : 500 ms\n\n\n\nCast: Josh Blaylock, Johanna Braddy, Jimmy Wong\n\nPlot: Best friends, first loves, and finding that perfect head-shot. \n\nScreens: \n &lt;a href=&quot;\nhttp://www.shotpix.com/images/88911453855701725724.png&quot; rel=&quot;nofollow&quot; target=&quot;_NEW&quot;&gt;\nhttp://www.shotpix.com/images/88911453855701725724.png&lt;/a&gt;\n &lt;a href=&quot;\nhttp://www.shotpix.com/images/35274326398714445723.png&quot; rel=&quot;nofollow&quot; target=&quot;_NEW&quot;&gt;\nhttp://www.shotpix.com/images/35274326398714445723.png&lt;/a&gt;\n &lt;a href=&quot;\nhttp://www.shotpix.com/images/18970435580907261430.png&quot; rel=&quot;nofollow&quot; target=&quot;_NEW&quot;&gt;\nhttp://www.shotpix.com/images/18970435580907261430.png&lt;/a&gt;","torrent":{"xt":"urn:btih:6c646382613192e25fbdc23c11273a7499eb207d","amp;dn":"Video.Game.High.School.2012.BRRiP.XViD+1MPERiUM","amp;tr":["udp%3A%2F%2Ftracker.openbittorrent.com%3A80","udp%3A%2F%2Fopen.demonii.com%3A1337","udp%3A%2F%2Ftracker.coppersurfer.tk%3A6969","udp%3A%2F%2Fexodus.desync.com%3A6969"],"infoHash":"6c646382613192e25fbdc23c11273a7499eb207d","infoHashBuffer":{"type":"Buffer","data":[108,100,99,130,97,49,146,226,95,189,194,60,17,39,58,116,153,235,32,125]},"announce":[],"urlList":[]}}